<?xml version="1.0" encoding="utf-8"?>
<!-- Generator: Adobe Illustrator 21.0.2, SVG Export Plug-In . SVG Version: 6.00 Build 0)  -->
<svg version="1.1" xmlns="http://www.w3.org/2000/svg" xmlns:xlink="http://www.w3.org/1999/xlink" x="0px" y="0px"
	 viewBox="0 0 907.1 396.9" style="enable-background:new 0 0 907.1 396.9;" xml:space="preserve">
<style type="text/css">
	.st0{fill:#1D1D1B;}
	.st1{fill:none;stroke:#1D1D1B;stroke-width:0.1;stroke-miterlimit:10;}
</style>
<g id="_x35_mm_frost">
	<g id="etch_1_">
		<path class="st0" d="M103.1,96.8l-7.8-8.9l1.2-1.1l6.8,7.8c5.4-4.1,8.5-10.6,8.5-17.3c0-12.1-9.8-21.9-21.9-21.9
			s-21.9,9.8-21.9,21.9c0,6.8,3.2,13.2,8.5,17.3l6.8-7.8l1.2,1.1l-7.8,8.9l-0.6-0.4c-6.1-4.4-9.8-11.5-9.8-19
			C66.5,64.4,77,53.9,90,53.9s23.5,10.5,23.5,23.5c0,7.5-3.7,14.6-9.8,19L103.1,96.8z"/>
		<path class="st0" d="M115.3,102.4h-4.9v-4.9c0-0.4-0.4-0.8-0.8-0.8s-0.8,0.4-0.8,0.8v4.9h-4.9c-0.4,0-0.8,0.4-0.8,0.8
			s0.4,0.8,0.8,0.8h4.9v4.9c0,0.4,0.4,0.8,0.8,0.8s0.8-0.4,0.8-0.8V104h4.9c0.4,0,0.8-0.4,0.8-0.8S115.7,102.4,115.3,102.4z"/>
		<path class="st0" d="M77.3,104H65.9c-0.4,0-0.8-0.4-0.8-0.8s0.4-0.8,0.8-0.8h11.3c0.4,0,0.8,0.4,0.8,0.8S77.7,104,77.3,104z"/>
		<g>
			<path d="M120.8,147.8c-0.2,0-0.4-0.1-0.6-0.3c-0.3-0.3-0.3-0.8,0-1.1c0.1,0,0.2-0.1,0.2-0.1c2.2-2.4,3.3-5.5,3.2-8.8
				c-0.2-3.2-1.6-6.2-4-8.4c-0.1-0.1-0.2-0.3-0.3-0.5c0-0.2,0-0.4,0.1-0.6c0.1-0.2,0.3-0.3,0.5-0.3c0.1,0,0.2,0,0.2-0.1
				c0.2,0,0.4,0.1,0.5,0.2c5.6,5.1,6,13.9,0.8,19.5c0,0-0.1,0.1-0.1,0.1c0,0,0,0-0.1,0.1c0,0-0.1,0.1-0.1,0.1
				C121.2,147.7,121,147.8,120.8,147.8z"/>
			<path d="M117.1,144.1c-0.2,0-0.3,0-0.5-0.1c-0.2-0.1-0.3-0.3-0.3-0.5c0-0.2,0-0.4,0.1-0.6c0,0,0.1-0.1,0.1-0.1
				c0,0,0.1-0.1,0.1-0.1c2.6-2.9,2.4-7.2-0.5-9.8c-0.1-0.1-0.2-0.3-0.3-0.4c-0.1-0.2,0-0.4,0.1-0.6c0.1-0.2,0.3-0.3,0.5-0.4
				c0,0,0.1,0,0.1-0.1c0,0,0,0,0,0c0.2,0,0.4,0.1,0.5,0.2c3.5,3.2,3.8,8.6,0.7,12c-0.1,0.1-0.1,0.2-0.1,0.2c0,0-0.1,0.1-0.1,0.1
				C117.5,144.1,117.3,144.1,117.1,144.1z"/>
			<path d="M111.4,147.9c-0.1,0-0.3,0-0.4-0.1l-7.6-5c-0.1-0.1-0.2-0.1-0.3-0.1h-4.7c-0.4,0-0.8-0.4-0.8-0.8v-7.8
				c0-0.4,0.4-0.8,0.8-0.8h4.7c0.1,0,0.2,0,0.3-0.1l7.6-4.9c0,0,0.1,0,0.1-0.1c0-0.1,0.1-0.1,0.2-0.1c0.1,0,0.1,0,0.2,0
				c0.5,0,0.8,0.4,0.8,0.8l0,18.2c0,0.2,0,0.3-0.1,0.4C111.9,147.8,111.6,147.9,111.4,147.9L111.4,147.9z M110.1,130.8
				c-0.1,0-0.2,0-0.3,0.1l-5.2,3.5c-0.1,0.1-0.2,0.3-0.2,0.4v6.4c0,0.2,0.1,0.3,0.2,0.4l5.2,3.4c0.1,0.1,0.2,0.1,0.3,0.1
				c0.1,0,0.2,0,0.2-0.1c0.2-0.1,0.3-0.3,0.3-0.4v-13.3c0-0.2-0.1-0.4-0.3-0.4C110.2,130.9,110.1,130.8,110.1,130.8z M99.6,134.9
				c-0.3,0-0.5,0.2-0.5,0.5v5.2c0,0.3,0.2,0.5,0.5,0.5h2.6c0.3,0,0.5-0.2,0.5-0.5v-5.2c0-0.3-0.2-0.5-0.5-0.5H99.6z"/>
		</g>
		<path class="st0" d="M110.2,196.8c-8.3,0-15-6.7-15-15c0-8.3,6.7-15,15-15c8.3,0,15,6.7,15,15
			C125.2,190.1,118.4,196.8,110.2,196.8z M110.2,168.4c-7.4,0-13.4,6-13.4,13.4s6,13.4,13.4,13.4s13.4-6,13.4-13.4
			S117.6,168.4,110.2,168.4z"/>
		<path class="st0" d="M117.8,174.2c-0.2-0.2-0.6-0.3-0.8-0.2l-10.3,3.9c-0.2,0.1-0.4,0.3-0.5,0.5l-3.9,10.3c-0.1,0.3,0,0.6,0.2,0.8
			c0.2,0.2,0.4,0.2,0.6,0.2c0.1,0,0.2,0,0.3-0.1l10.3-3.9c0.2-0.1,0.4-0.3,0.5-0.5L118,175C118.1,174.7,118.1,174.4,117.8,174.2z
			 M104.5,187.5l3.1-8.3l5.2,5.2l0,0L104.5,187.5z"/>
		<path class="st0" d="M135.1,136.5c0-15.2,12.4-27.5,27.5-27.5c15.2,0,27.5,12.4,27.5,27.5c0,9.1-4.4,17.2-11.2,22.2
			c0.5,0.3,0.9,0.7,1.3,1c7-5.3,11.5-13.7,11.5-23.2c0-16.1-13.1-29.1-29.1-29.1c-16.1,0-29.1,13.1-29.1,29.1
			c0,9.4,4.5,17.8,11.5,23.2c0.4-0.3,0.9-0.7,1.3-1C139.6,153.6,135.1,145.6,135.1,136.5z"/>
	</g>
	<g id="cut">
		<circle class="st1" cx="52.8" cy="49.6" r="1.4"/>
		<circle class="st1" cx="208.7" cy="49.6" r="1.4"/>
		<circle class="st1" cx="52.8" cy="216.8" r="1.4"/>
		<circle class="st1" cx="208.7" cy="216.8" r="1.4"/>
		<circle id="potentiometer_1_" class="st1" cx="90" cy="77.7" r="8.5"/>
		<rect x="42.5" y="39.7" class="st1" width="175.7" height="187.1"/>
		<circle id="magnet_1_" class="st1" cx="76.5" cy="157.3" r="9.9"/>
		<circle id="toggle_3_" class="st1" cx="162.7" cy="181.8" r="28.3"/>
		<circle id="LED_1_" class="st1" cx="138.2" cy="77.7" r="8.5"/>
		<circle id="button_1_" class="st1" cx="179.3" cy="77.7" r="9.9"/>
		<circle id="button_5_" class="st1" cx="162.7" cy="192.7" r="9.9"/>
		<circle id="button_4_" class="st1" cx="162.7" cy="170.2" r="9.2"/>
	</g>
</g>
<g id="_x33_mm_clear">
	<circle id="buzzer_1_" class="st1" cx="392.3" cy="136.5" r="17"/>
	<circle class="st1" cx="282.4" cy="49.6" r="1.4"/>
	<circle class="st1" cx="438.3" cy="49.6" r="1.4"/>
	<circle class="st1" cx="282.4" cy="216.8" r="1.4"/>
	<circle class="st1" cx="438.3" cy="216.8" r="1.4"/>
	<circle id="potentiometer_2_" class="st1" cx="319.6" cy="77.7" r="11.3"/>
	<circle id="toggle_1_" class="st1" cx="392.3" cy="181.8" r="28.3"/>
	<circle id="LED_2_" class="st1" cx="367.8" cy="77.7" r="9.9"/>
	<polygon class="st1" points="425.9,60.7 391.9,60.7 391.9,94.7 394.7,94.7 394.7,103.2 423,103.2 423,94.7 425.9,94.7 	"/>
	<path class="st1" d="M323.1,157.3c0-5.7-2.8-10.7-7.1-13.8v-4.6h-19.8v4.6c-4.3,3.1-7.1,8.1-7.1,13.8s2.8,10.7,7.1,13.8v4.6H316
		v-4.6C320.3,168,323.1,163,323.1,157.3z"/>
	<polygon class="st1" points="447.9,76.5 447.9,39.7 416.7,39.7 416.7,48.2 378.9,48.2 378.9,39.7 341.1,39.7 341.1,48.2 
		303.3,48.2 303.3,39.7 272.1,39.7 272.1,76.5 280.6,76.5 280.6,114.3 272.1,114.3 272.1,152.1 280.6,152.1 280.6,189.9 
		272.1,189.9 272.1,226.8 303.3,226.8 303.3,218.3 341.1,218.3 341.1,226.8 378.9,226.8 378.9,218.3 416.7,218.3 416.7,226.8 
		447.9,226.8 447.9,189.9 439.4,189.9 439.4,152.1 447.9,152.1 447.9,114.3 439.4,114.3 439.4,76.5 	"/>
	<polygon class="st1" points="439.4,337.3 439.4,306.1 447.9,306.1 447.9,275 439.4,275 439.4,243.8 416.7,243.8 416.7,235.3 
		378.9,235.3 378.9,243.8 341.1,243.8 341.1,235.3 303.3,235.3 303.3,243.8 280.6,243.8 280.6,276.5 272.1,276.5 272.1,307.7 
		280.6,307.7 280.6,338.9 272.1,338.9 272.1,371.3 289.1,371.3 289.1,362.8 430.9,362.8 430.9,371.3 447.9,371.3 447.9,337.3 	"/>
	<polygon class="st1" points="575.4,48.2 575.4,48.2 558.4,48.2 558.4,39.7 527.2,39.7 527.2,48.2 496.1,48.2 496.1,39.7 
		464.9,39.7 464.9,76.5 456.4,76.5 456.4,114.3 464.9,114.3 464.9,152.1 456.4,152.1 456.4,189.9 464.9,189.9 464.9,226.8 
		496.1,226.8 496.1,218.3 527.2,218.3 527.2,226.8 558.4,226.8 558.4,218.3 575.4,218.3 592.4,218.3 592.4,209.8 592.4,201.3 
		583.9,201.3 583.9,65.2 592.4,65.2 592.4,56.7 592.4,48.2 592.4,48.2 	"/>
	<polygon class="st1" points="768.2,65.2 768.2,48.2 759.7,48.2 759.7,39.7 618,39.7 618,48.2 609.4,48.2 609.4,65.2 600.9,65.2 
		600.9,201.3 609.4,201.3 609.4,218.3 618,218.3 618,226.8 759.7,226.8 759.7,218.3 768.2,218.3 768.2,201.3 776.7,201.3 
		776.7,65.2 	"/>
	<polygon class="st1" points="209.8,337.3 209.8,306.1 218.3,306.1 218.3,275 209.8,275 209.8,243.8 187.1,243.8 187.1,235.3 
		149.3,235.3 149.3,243.8 111.5,243.8 111.5,235.3 73.7,235.3 73.7,243.8 51,243.8 51,276.5 42.5,276.5 42.5,307.7 51,307.7 
		51,338.9 42.5,338.9 42.5,371.3 59.5,371.3 59.5,362.8 201.3,362.8 201.3,371.3 218.3,371.3 218.3,337.3 	"/>
	<polygon class="st1" points="643.5,354.3 643.5,354.3 643.5,337.3 652,337.3 652,306.1 643.5,306.1 643.5,275 652,275 652,243.8 
		615.1,243.8 615.1,235.3 577.3,235.3 577.3,243.8 539.5,243.8 539.5,235.3 501.7,235.3 501.7,243.8 464.9,243.8 464.9,275 
		473.4,275 473.4,306.1 464.9,306.1 464.9,337.3 473.4,337.3 473.4,354.3 473.4,371.3 481.9,371.3 490.4,371.3 490.4,362.8 
		626.5,362.8 626.5,371.3 635,371.3 643.5,371.3 643.5,371.3 	"/>
	<circle id="button_2_" class="st1" cx="392.3" cy="194.4" r="9.9"/>
	<circle id="button_3_" class="st1" cx="392.3" cy="171.9" r="9.2"/>
	<rect x="501.7" y="309" class="st1" width="113.4" height="19.8"/>
	<circle class="st1" cx="612.7" cy="292.7" r="2.8"/>
	<circle class="st1" cx="601.7" cy="292.7" r="2.8"/>
	<circle id="button_6_" class="st1" cx="306.1" cy="157.3" r="9.9"/>
</g>
</svg>
